# xmcd
#
# Track frame offsets:
#	182
#	20875
#	61307
#
# Disc length: 1134 seconds
# Revision: 0
# Processed by: cddbd v1.5.2PL0 Copyright (c) Steve Scherf et al.
# Submitted via: dBpowerAMP V12.0
#
DISCID=23046c03
DTITLE=Bobby Brown - Roni
DYEAR=1989
DGENRE=R&B
TTITLE0=Roni (7" Version)
TTITLE1=The 'Every Little Hit' Mix
TTITLE2=Roni (Pebbaroni Mix)
EXTD=
EXTT0=
EXTT1=
EXTT2=
PLAYORDER=
